<svg xmlns="http://www.w3.org/2000/svg" width="78.802" height="104.22" viewBox="0 0 78.802 104.22">
  <g id="Group_4" data-name="Group 4" style="isolation: isolate">
    <path id="Path_410" data-name="Path 410" d="M61.537,77.811l.917-4.173,1.2.365,7.611,13.772H63.02v6.769H85.286V87.775H74.331L80.071,76.8l.917.5.824-2.334,2.391.025,1.334,11.327L86,87.775h.12v6.769h22.266V87.775H104.2l1.289-14,1.409-1.8,4.048,1.688.984-1.389,5.756,3.358-4.021,10.189-4.206-2.191L105.014,87.5h12.253l7.495-13.616L115.245,67.6l.583-.822-5.3-4-4.344-2.187-3.309-1.672-4.424-1.548h0L97.991,54.4l2.647-4.309V47.664h.824v-4.5h-.383l.581-1.505a1.257,1.257,0,0,0,.855-1.209c0-.706-.042-1.283-.042-1.283V36.42H101.44a7.39,7.39,0,0,0-4.669-4.462l.2-1.55H91.915L92.12,32a7.39,7.39,0,0,0-4.531,4.42H86.553v4.028a1.236,1.236,0,0,0,1.089,1.26l.383,1.454h-.461v4.5h.819v2.423l2.685,4.369-.45,2.912-4.15,1.548L83.16,60.588l-4.331,2.187-3.9,11.238.343.185-2.541,6.549L66.979,72.52V67.332l-2.966-.773.822-3.723-.492-.12.61-2.276v-.013l5.5,1.474L67.789,48.517l-.051.062L58.8,58.78l5.493,1.472-.61,2.3-.445-.111-1.269,3.583-1.51-.392L58.794,72.52l.786.24-1.423,4.017Z" transform="translate(-52.682 -30.408)" fill="#fff"/>
    <rect id="Rectangle_401" data-name="Rectangle 401" width="22.268" height="6.768" transform="translate(0 97.452)" fill="#fff"/>
    <rect id="Rectangle_402" data-name="Rectangle 402" width="22.266" height="6.768" transform="translate(56.535 89.435)" fill="#fff"/>
    <rect id="Rectangle_403" data-name="Rectangle 403" width="22.267" height="6.768" transform="translate(33.437 89.435)" fill="#fff"/>
    <rect id="Rectangle_404" data-name="Rectangle 404" width="22.267" height="6.768" transform="translate(10.338 89.435)" fill="#fff"/>
    <rect id="Rectangle_405" data-name="Rectangle 405" width="22.268" height="6.768" transform="translate(46.198 81.418)" fill="#fff"/>
    <rect id="Rectangle_406" data-name="Rectangle 406" width="22.268" height="6.768" transform="translate(23.099 81.418)" fill="#fff"/>
    <rect id="Rectangle_407" data-name="Rectangle 407" width="22.268" height="6.768" transform="translate(0 81.418)" fill="#fff"/>
    <rect id="Rectangle_408" data-name="Rectangle 408" width="22.266" height="6.768" transform="translate(56.535 73.401)" fill="#fff"/>
    <rect id="Rectangle_409" data-name="Rectangle 409" width="22.267" height="6.768" transform="translate(33.437 73.401)" fill="#fff"/>
    <rect id="Rectangle_410" data-name="Rectangle 410" width="22.267" height="6.768" transform="translate(10.338 73.401)" fill="#fff"/>
    <rect id="Rectangle_411" data-name="Rectangle 411" width="22.268" height="6.768" transform="translate(46.198 65.384)" fill="#fff"/>
    <rect id="Rectangle_412" data-name="Rectangle 412" width="22.268" height="6.768" transform="translate(23.099 65.384)" fill="#fff"/>
    <rect id="Rectangle_413" data-name="Rectangle 413" width="22.268" height="6.768" transform="translate(0 65.384)" fill="#fff"/>
    <rect id="Rectangle_414" data-name="Rectangle 414" width="22.266" height="6.768" transform="translate(56.535 57.367)" fill="#fff"/>
    <rect id="Rectangle_415" data-name="Rectangle 415" width="22.268" height="6.768" transform="translate(46.198 97.452)" fill="#fff"/>
  </g>
</svg>
