<svg xmlns="http://www.w3.org/2000/svg" width="68.971" height="112.371" viewBox="0 0 68.971 112.371">
  <path id="Path_2" data-name="Path 2" d="M124.286,167.284l-.152-1.615-1.655-.48,1.93-16L118.74,141.7l1.561-1.6-7.8-5.79-4.167-2.095-3.171-1.6-4.24-1.483-.44-2.852,2.539-4.125V119.83h.785v-4.315h-.365l.557-1.444a1.2,1.2,0,0,0,.818-1.16c0-.678-.038-1.227-.038-1.227v-2.633h-.991a7.072,7.072,0,0,0-4.478-4.277l.192-1.486H94.66l.2,1.527a7.076,7.076,0,0,0-4.344,4.236h-.991v3.86a1.181,1.181,0,0,0,1.039,1.208l.369,1.4h-.442v4.315h.785v2.324l2.577,4.185-.432,2.794v0l-3.977,1.483-3.174,1.6-4.154,2.095-4.7,10.055,1.3.739-1.314,3.386V111.471H62.225v30.811l-3.914-1.02-1.6,6.6,4.657,1.421.853-.38v61.407H77.394V158.542l.931.668,5.051-11.438.807.463L84.974,146l2.27-.154,1.3,11.037-4.21,40.478.044,9.779-2.4,4.117,4.173,4.407,5.008-2.944.409-3.2.267-2.091L93.5,197.357l3.81-26.911,5.085,26.911,1.663,10.069.075.595h0l.075.586.115.91.411,3.2,5.01,2.944,4.169-4.407-2.4-4.117.044-9.779h-.081l-5.41-40.478,1.463-12.41,1.492-.1,4.006,3.2,1.2-1.229,4.388,6.518.57,12.133-2.174.165.29,2.132h-2.383v8.82l2.2,31.633,6.38-.215.061-.789-1.94-.455,2.013-.659.177-2.429-1.949-.455,2.022-.659.179-2.441-1.951-.455,2.024-.647v-.012l.177-2.429-1.961-.455,2.034-.659.179-2.429-1.976-.455,2.059-.659.167-2.429-1.974-.455,2.057-.659.169-2.416-1.688-.4.048-.179,1.723-.561.167-2.406-1.006-.24-.993-.227,1.162-.371.92-.3.169-2.406-.323-.073-1.675-.394,1.963-.647.119-.035.035-.528v-9.429Zm-6.721,1.986.311,2.283,5.819-.9.186,2.712H116.9l-.065-4.087Z" transform="translate(-56.715 -103.288)" fill="#fff"/>
</svg>
