<svg xmlns="http://www.w3.org/2000/svg" width="65.598" height="115.888" viewBox="0 0 65.598 115.888">
  <g id="Group_12" data-name="Group 12" transform="translate(-181.018 -149.263)">
    <path id="Path_421" data-name="Path 421" d="M245.441,218.509a85.578,85.578,0,0,0-.91-14.356l2.084-.212-2.27-5.047c.023-5.941-.708-11.092-2.91-12.1-1.536-.7-3.345.519-5.522,3.735-1.814,2.673-2.7,2.714-3,2.6-2.419-.89-2.238-14.29-1.257-25.742l1.052-.58,2.6-2.841L231.782,158l-.845.252a.268.268,0,0,0-.356-.128c-.175.075-.354.142-.531.212q-.847.339-1.69.675a.275.275,0,0,0-.147.365.284.284,0,0,0,.365.165c.105-.046.214-.086.321-.128.056.068.1.131.154.189a.562.562,0,0,0,.226.154l0,.011-1.683,1.19-.107,4.03-.14-.107-5.828,13.275s-3.73,2.359-7.226,4.575l.056-3.474,1.2.224,2.615-1.423-.766-4.593,1.322-2.286-3.069-2.608-.005-.065-.095-1.218c2.172-.678,3.781-1.211,4.086-1.355,1.125-.526-.978-1.825-1.544-2.067a3.871,3.871,0,0,0-1.988.216,14.089,14.089,0,0,0-.938-2.125c-.142-.249-.287-.484-.44-.708-2.643-3.9-6.743-4.053-10.035-2.507a8.31,8.31,0,0,0-4.74,8.409c.005.047.011.1.018.145a8.22,8.22,0,0,0,.554,2.037c-.854.456-.444.989-.557,1.849-.03.238.892.13,2.347-.186l3.225,6.025.345.65.321.061,1.779.335.489.091-.587,2.731-2.473,2.88-3.452,4.019,1.478,12.742-3.753,12.393.393.838-.061.224-4.656,19.135-7.673,9.545-6.673,11.855L195.89,258.5l-.826-3.981-4.26-2.288,6.14-8.677,6.242-7.05,3.643-8.6c1.518,3.092,2.7,5.383,2.794,5.224.119-.188.175,3.769.214,8.552,0,.619.005,1.257.007,1.926h0c0,.82.005,1.648.01,2.477.014,5.863,0,11.511,0,11.511l14.03,1.1-1.665-3.52-5.413-2.365.587-9.429.952-15.259L213.9,213.141l1.18-5.288,1.1-4.94.046-.491h0l.23-2.7,3.821,3.376,16.209-.44.207.245a52.742,52.742,0,0,0-4.049,16.784c-.379,5.993.342,9.054,2.2,9.357,2.617.41,5.877-5.527,7.41-11.287a70.474,70.474,0,0,0,1.574-9.683c.245,2.622.4,6.035.4,10.475.272,4.305.422,14.116-1.1,19.363a4.835,4.835,0,0,0-5.948.891l-2.293,2.475.68.629c-.039.037-.082.058-.119.1l-2.954,3.183c-.624.675-.75,1.571-.284,2.005s1.355.245,1.984-.429l2.954-3.183c.037-.04.054-.086.088-.126l2.046,1.9-2.891,3.111a1.269,1.269,0,1,0,1.77,1.641l2.885-3.113.926.859,2.289-2.47a4.822,4.822,0,0,0-.138-6.7C246.216,232.323,245.546,220.176,245.441,218.509Zm-4.365-1.066c-1.685,6.335-4.812,10.605-6.039,10.4-.174-.028-1.669-.493-1.188-8.084a50.507,50.507,0,0,1,3.728-15.8l.7.831,4.649-.471A75.936,75.936,0,0,1,241.076,217.443ZM242,198.476a1.887,1.887,0,0,0-.906-.291h-.061a3.248,3.248,0,0,0-2.3,1.355l-.258.084-16.141-1.52s-2.216-2.5-4.454-5l.433-1.716a20.206,20.206,0,0,0-1.253-3.069l9.035-7.283,3.56-12.644.051.075.661-.365c-.775,9.194-1.53,24.823,2.125,26.171,1.266.466,2.712-.535,4.423-3.059,1.69-2.5,3.152-3.706,4.014-3.31,1.536.7,2.158,4.968,2.193,10.207Z" transform="translate(0 6.449)" fill="#fff"/>
    <path id="Path_422" data-name="Path 422" d="M207.443,158.369a.274.274,0,0,0-.1.291.3.3,0,0,0,.438.2c.929-.365,1.853-.736,2.778-1.11a.863.863,0,0,0,.205-.121.279.279,0,0,0,.061-.351.31.31,0,0,0-.389-.121c-.48.2-.962.386-1.444.578s-.945.377-1.418.568A.642.642,0,0,0,207.443,158.369Z" transform="translate(19.813 5.924)" fill="#fff"/>
    <path id="Path_423" data-name="Path 423" d="M207.943,159.235q.71-.281,1.42-.566t1.411-.564a1.124,1.124,0,0,0,.124-.056.287.287,0,0,0,.005-.479.3.3,0,0,0-.284-.019l-2.915,1.164a.694.694,0,0,0-.074.035.29.29,0,0,0,.012.486A.3.3,0,0,0,207.943,159.235Z" transform="translate(19.942 6.22)" fill="#fff"/>
    <path id="Path_424" data-name="Path 424" d="M205.5,151.633a.278.278,0,0,0,.293.151.262.262,0,0,0,.182-.363c-.131-.295-.256-.591-.384-.885h0q-.184-.431-.372-.861a.5.5,0,0,0-.054-.105.255.255,0,0,0-.273-.1.263.263,0,0,0-.156.384C204.992,150.446,205.25,151.039,205.5,151.633Z" transform="translate(17.836 0.149)" fill="#fff"/>
    <path id="Path_425" data-name="Path 425" d="M209.926,154.109a.241.241,0,0,0-.245.216.228.228,0,0,0,.216.282c.182,0,.363-.018.545-.028.107-.007.214-.016.321-.021.191-.009.382-.012.573-.023.17-.007.34-.025.51-.028a.282.282,0,0,0,.293-.37.271.271,0,0,0-.27-.154c-.252.005-.5.028-.757.042-.151.009-.3.012-.452.023C210.415,154.065,210.17,154.086,209.926,154.109Z" transform="translate(21.574 3.554)" fill="#fff"/>
    <path id="Path_426" data-name="Path 426" d="M203.087,152.275c.191.1.384.2.577.3l.28.147c.144.075.291.144.43.226a.264.264,0,0,0,.407-.112.244.244,0,0,0-.037-.251c-.124-.081-.251-.158-.38-.228-.147-.081-.3-.151-.449-.23s-.266-.151-.4-.221c-.193-.1-.386-.2-.582-.3a.232.232,0,0,0-.224-.025.246.246,0,0,0-.079.422A4.1,4.1,0,0,0,203.087,152.275Z" transform="translate(16.202 1.736)" fill="#fff"/>
    <path id="Path_427" data-name="Path 427" d="M203.147,155.163c.138-.019.277-.04.417-.058.273-.035.545-.067.819-.1a.4.4,0,0,1,.107-.019c.126.023.193-.049.249-.145a.265.265,0,0,0-.112-.335.446.446,0,0,0-.286-.012c-.217.016-.435.051-.652.081-.27.037-.54.075-.81.114-.026,0-.053,0-.079.005l-.368.046c-.028.033-.061.07-.089.109a.229.229,0,0,0-.011.266.213.213,0,0,0,.219.121C202.751,155.218,202.949,155.188,203.147,155.163Z" transform="translate(16.019 3.924)" fill="#fff"/>
    <path id="Path_428" data-name="Path 428" d="M207.713,151.668a.3.3,0,0,0,.188-.17c.03-.1.058-.2.084-.3.051-.2.1-.394.154-.592.044-.158.095-.314.14-.47s.095-.335.142-.5a.269.269,0,0,0-.056-.3.277.277,0,0,0-.294-.049c-.04.042-.1.079-.117.13-.058.17-.1.344-.151.517-.028.1-.051.2-.081.3-.054.189-.114.377-.17.566-.047.167-.1.333-.138.5a.475.475,0,0,0-.007.21C207.434,151.622,207.534,151.668,207.713,151.668Z" transform="translate(19.861 0)" fill="#fff"/>
    <path id="Path_429" data-name="Path 429" d="M204.319,157.985c.107-.095.209-.2.312-.294l.55-.521c.195-.182.393-.365.589-.549a.313.313,0,0,0,.07-.3c-.054-.042-.1-.105-.165-.119a.29.29,0,0,0-.214.025,1.867,1.867,0,0,0-.265.237c-.17.163-.338.328-.508.487-.21.2-.424.391-.635.587a.756.756,0,0,0-.1.112.228.228,0,0,0,.018.328A.25.25,0,0,0,204.319,157.985Z" transform="translate(17.225 5.216)" fill="#fff"/>
    <path id="Path_430" data-name="Path 430" d="M209.754,152.923c.174-.154.351-.307.528-.456.158-.131.319-.261.479-.391s.331-.275.5-.407a.265.265,0,0,0,.065-.337.321.321,0,0,0-.335-.105c-.037.033-.072.068-.11.1-.149.124-.3.249-.447.372s-.321.263-.48.393l-.55.447a.259.259,0,0,0,0,.37A.293.293,0,0,0,209.754,152.923Z" transform="translate(21.312 1.467)" fill="#fff"/>
    <path id="Path_431" data-name="Path 431" d="M204.2,156.857a4.661,4.661,0,0,0,.522,1.125c.112.163.228.324.349.484a1.562,1.562,0,0,0,.189.2c.137.126.277.249.417.372.063.054.126.109.193.16.165.124.331.247.494.373s.319.249.479.372c.205.16.419.309.614.48a5.862,5.862,0,0,1,.417.442,2.413,2.413,0,0,1,.459.642,3.546,3.546,0,0,0,.34.677,1.309,1.309,0,0,0,.408.372,2,2,0,0,0,.414.177.935.935,0,0,0,.365.047,2.14,2.14,0,0,0,.487-.135c.081-.033.16-.07.24-.1-.159-.345-.319-.689-.473-1.038-.221-.5-.431-1-.654-1.492a1.675,1.675,0,0,0-.254-.438,6.316,6.316,0,0,0-.5-.463c-.217-.2-.431-.4-.645-.6-.186-.174-.37-.349-.556-.521a.284.284,0,0,0-.1-.06.746.746,0,0,1-.51-.613.271.271,0,0,1,.056-.184c.105-.116.189-.081.305.011a1.191,1.191,0,0,1,.312.414.089.089,0,0,0,.124.047.569.569,0,0,0,.137-.124.056.056,0,0,0,0-.047c-.075-.06-.058-.149-.056-.223a.187.187,0,0,1,.088-.135.2.2,0,0,1,.158.007.352.352,0,0,1,.167.284,1.5,1.5,0,0,0,.168-.039.164.164,0,0,0,.1-.235.556.556,0,0,1-.037-.158.163.163,0,0,1,.182-.168c.107.018.151.1.189.188.053.119.065.126.188.075a.539.539,0,0,0,.091-.042c.091-.053.1-.079.053-.174a.511.511,0,0,1-.04-.1.177.177,0,0,1,.1-.212.152.152,0,0,1,.212.075.875.875,0,0,1,.058.124.151.151,0,0,0,.188.084.215.215,0,0,0,.135-.321.625.625,0,0,1-.019-.061.126.126,0,0,1,.046-.167c.06-.037.13-.065.189,0a.847.847,0,0,1,.123.163.117.117,0,0,0,.154.068.325.325,0,0,0,.1-.04.1.1,0,0,0,.037-.079c-.011-.089-.037-.175-.047-.265a1.464,1.464,0,0,1-.011-.3.261.261,0,0,1,.088-.156c.093-.081.219-.039.3.088a.741.741,0,0,1,.135.514,1.391,1.391,0,0,1-.1.284.242.242,0,0,0-.018.058c0,.088,0,.174,0,.259-.005.228-.014.456-.016.684,0,.184,0,.368,0,.554v.258a4.478,4.478,0,0,0,0,.531,1.587,1.587,0,0,0,.114.436c.352.859.713,1.714,1.071,2.572l.037.086c.214-.1.426-.209.643-.3a1.186,1.186,0,0,0,.631-.819,1.224,1.224,0,0,0-.021-.722c-.068-.23-.128-.461-.209-.684a4.353,4.353,0,0,1-.156-.922,1.522,1.522,0,0,1-.009-.252c.012-.224.028-.447.047-.671.012-.147.033-.294.051-.442.016-.123.033-.247.046-.37.016-.154.026-.308.042-.463.019-.21.051-.419.056-.629a3.983,3.983,0,0,0-.03-.678,4.9,4.9,0,0,0-.195-.854,6.79,6.79,0,0,0-.352-.763,3.426,3.426,0,0,0-.5-.726c-.137-.158-.282-.31-.428-.459a1.3,1.3,0,0,0-.184-.154c-.114-.084-.228-.168-.345-.247a2.606,2.606,0,0,0-.314-.205,5.041,5.041,0,0,0-.494-.226,4.09,4.09,0,0,0-.51-.179c-.174-.046-.356-.058-.531-.1a3.024,3.024,0,0,0-.733-.051c-.081,0-.16,0-.238.012a5.168,5.168,0,0,0-.778.105,4.922,4.922,0,0,0-1.5.682,2.8,2.8,0,0,0-.5.419c-.181.2-.368.4-.535.617a3.436,3.436,0,0,0-.351.554,4.675,4.675,0,0,0-.293.689,7.244,7.244,0,0,0-.191.775,2.876,2.876,0,0,0-.04.426c-.007.172-.016.344-.007.515a4.113,4.113,0,0,0,.063.461A3.793,3.793,0,0,0,204.2,156.857Z" transform="translate(17.315 1.331)" fill="#fff"/>
    <path id="Path_432" data-name="Path 432" d="M208.738,154.915c0-.072.014-.146.014-.219,0-.13-.005-.259-.007-.379-.1,0-.195,0-.286,0a.1.1,0,0,0-.063.023c-.07.067-.14.135-.205.207a.376.376,0,0,1-.351.079.137.137,0,0,0-.146.049.568.568,0,0,1-.514.214.124.124,0,0,0-.126.061c-.01.018-.014.044-.03.054a.788.788,0,0,1-.557.195.087.087,0,0,0-.058.017c-.067.06-.13.124-.2.191.047.042.1.086.144.13.121.114.24.231.365.344.175.16.354.314.529.473.13.119.251.247.384.363a1.437,1.437,0,0,1,.394.5q.447,1.012.892,2.023c.1.231.2.465.3.7l.47-.2.007.016c.1-.047.2-.091.293-.138-.3-.713-.6-1.427-.9-2.142-.107-.254-.2-.515-.3-.773a2.721,2.721,0,0,1-.065-.922C208.724,155.492,208.734,155.2,208.738,154.915Z" transform="translate(18.969 3.805)" fill="#fff"/>
  </g>
</svg>
