<svg xmlns="http://www.w3.org/2000/svg" width="97.118" height="105.122" viewBox="0 0 97.118 105.122">
  <g id="Group_11" data-name="Group 11" style="isolation: isolate">
    <path id="Path_412" data-name="Path 412" d="M125.513,183.786l.7-.617,5.656-4.976,4.5-15.783.068-.237-.413-.877,3.949-13-1.553-13.365,2.243-2.607,1.386-1.612,3.02-3.507,2.764-3.207-.4-.327-1.477-1.2-.264-.216.006-.772v0h0l.051-7.167c-1.5-.439-2.408-.8-2.262-1.005.535-.737.425-1.436,1.447-1.425a8.465,8.465,0,0,1,.51-2.155c.017-.048.038-.1.059-.143a8.741,8.741,0,0,1,8.606-5.369c3.817.225,7.527,2.422,8.009,7.34.027.285.044.575.049.875a14.3,14.3,0,0,1-.2,2.426,4.089,4.089,0,0,1,1.945.8c.4.51,1.693,2.76.389,2.682-.353-.021-2.11-.336-4.458-.8l-.523,1.169-.03.065,1.524,3.942-2.368,1.442-1.6,4.617h-3.13l-.992-.806-1.322,2.08-.006.015.006.013,1.028,2.191a25.912,25.912,0,0,1,3.2,6.441l-.41,2.158c1.557,3.971,3.229,8.24,3.229,8.24l13.31,6.473,3.9-.044,4.744,5.841c.4.124.791.239,1.189.4a14.653,14.653,0,0,1,9.49,12.123,1.249,1.249,0,0,1,.038.361A2.353,2.353,0,0,0,192.7,177.1c.768.332.631,1.641-.26,2.189-1.272.785-1.568,2.168-2.427,3.322,1.458.854,2.812,1.675,4.2,2.441a1.487,1.487,0,0,0,.889,0c3-.577,6.009-1.152,9-1.78a1.5,1.5,0,0,0,.923-.716c.629-1.316,1.168-2.676,1.849-4.277l2.52,9.321-.188.118c-.959-.695-1.936-1.366-2.869-2.093a2.045,2.045,0,0,0-2.144-.472c-4.477,1.469-8.991,2.833-13.494,4.229-1.608.5-3.212,1.018-4.839,1.452a2.043,2.043,0,0,0-1.437,1.121,9.083,9.083,0,0,0-1.369,3.121c-.129,1.182-1.073,1.509-2.089.913q-9.633-5.654-19.275-11.3c-.6-.348-1.073-.789-.8-1.429a2.515,2.515,0,0,1,1.193-1.2,1.92,1.92,0,0,0,1.166-2.191,14.384,14.384,0,0,1,4.971-16.461,16.167,16.167,0,0,1,2.144-1.259l-15.752-5.436-1.8-3.4-.593,2.655-1.24,5.549,4.676,15.726-1,16.005-.616,9.892,5.692,2.481,1.752,3.692-14.755-1.159s.013-5.923,0-12.077c-.006-.873-.008-1.736-.011-2.6h0c0-.753-.006-1.467-.011-2.16-.04-4.951-.1-9.027-.224-8.832-.1.166-1.342-2.239-2.937-5.48l-2.163,5.056-9.911,6.16-6.82,4.24,2.315,5.975-1.676,5.891-8.327-13.027Zm46.263-24.617.114,0-.25-.065Zm21.036,26.306-3.286-1.929c-.586.984-1.136,1.9-1.75,2.932C189.477,186.14,191.044,185.828,192.811,185.475Zm-24.595-19.406c-3.259,3.345-4.994,8.565-3.453,12.142a1.7,1.7,0,0,0,.258-.252q2.965-5,5.91-10A.91.91,0,0,0,171,167.3a1.5,1.5,0,0,1,.459-1.8c.633-.514,1.166-.248,1.754.1q7.516,4.436,15.047,8.842c.25.147.516.267.817.42.205-4.355-2.482-8.689-7.732-11.174a11.612,11.612,0,0,0-2.108-.732c-1.039-.1-2.256-.227-3.447-.336A11.393,11.393,0,0,0,168.217,166.069Z" transform="translate(-116.958 -104.196)" fill="#fff"/>
    <path id="Path_413" data-name="Path 413" d="M117.066,143.949c0,.834-1.007-.052-1.007-.052l-.273-.653S117.066,143.224,117.066,143.949Z" transform="translate(-22.51 -61.154)" fill="#fff"/>
    <path id="Path_414" data-name="Path 414" d="M116,144.513c0,.832-1.056-.043-1.056-.043l-.224-.662S116,143.788,116,144.513Z" transform="translate(-19.528 -60.532)" fill="#fff"/>
    <path id="Path_415" data-name="Path 415" d="M115.538,142.941l-.165-.537s1.28-.02,1.28.705C116.653,143.943,115.538,142.941,115.538,142.941Z" transform="translate(-21.351 -62.083)" fill="#fff"/>
    <path id="Path_416" data-name="Path 416" d="M117.009,145.1c0,.832-.944-.009-.944-.009l-.338-.7S117.009,144.377,117.009,145.1Z" transform="translate(-22.346 -57.149)" fill="#fff"/>
    <path id="Path_417" data-name="Path 417" d="M115.651,145.932c0,.832-1.058-.043-1.058-.043l-.224-.662S115.651,145.207,115.651,145.932Z" transform="translate(-18.533 -56.479)" fill="#fff"/>
    <path id="Path_418" data-name="Path 418" d="M116.712,146.224c0,.834-.944-.009-.944-.009l-.336-.7S116.712,145.5,116.712,146.224Z" transform="translate(-21.516 -56.243)" fill="#fff"/>
    <path id="Path_419" data-name="Path 419" d="M116.436,141.526s1.28-.02,1.28.705c0,.834-.944-.072-.944-.072Z" transform="translate(-24.336 -63.048)" fill="#fff"/>
  </g>
</svg>
