<svg xmlns="http://www.w3.org/2000/svg" width="79.006" height="123.007" viewBox="0 0 79.006 123.007">
  <path id="Path_420" data-name="Path 420" d="M132.137,185.749l-16.786.212a3.163,3.163,0,0,0-2.715,1.621h-2.661l.208,10.1h-.006l.017.434v.01l.037.886,7.121-.056.141,7.739h-.583v6.257l-1.32.426-1.752,4.061-.1-.166-11.347,11.142s-3.583.662-7.444,1.381c-.575-.984-1.015-1.617-1.015-1.617l-1.071-2.292-.008-.012.008-.012.06-4.25,1.314.245,2.867-1.561-.839-5.038,1.451-2.506-3.367-2.861-.006-.073-.1-1.337c2.383-.743,4.148-1.329,4.482-1.484,1.235-.579-1.073-2-1.694-2.269a4.238,4.238,0,0,0-2.182.239,15.324,15.324,0,0,0-1.028-2.331c-.156-.272-.318-.529-.484-.776-2.9-4.279-7.395-4.445-11.007-2.751a9.118,9.118,0,0,0-5.2,9.224c.006.052.01.106.019.16a9.021,9.021,0,0,0,.608,2.234c-.936.5-.486,1.086-.61,2.03-.033.262.978.141,2.574-.2l2.72,5.078.818,1.53.38.712.351.069h0l.326.06,1.625.305.536.1-.644,3-2.715,3.158-3.785,4.409,1.619,13.978-4.115,13.6s.16.341.43.92l-.069.245-5.1,20.99-8.416,10.471-7.322,13,16.315,4.366-.907-4.366-4.673-2.51,6.737-9.518,6.847-7.735,4-9.431c1.665,3.39,2.96,5.9,3.064,5.73.133-.206.191,4.133.237,9.379,0,.681,0,1.383.006,2.115h0c0,.9.006,1.806.01,2.715.017,6.433,0,12.63,0,12.63l15.391,1.21-1.827-3.861-5.937-2.6.644-10.343L97.3,275.22l-4.879-16.444,1.223-5.479,9.784,7.351h0l.091,3.06,1.173.752a6.775,6.775,0,0,0-1.291,1.1c-2.969,3.3-2.4,8.854-2.377,9.089l.662-.071v12.336a14.192,14.192,0,0,0,14.976,0V274.583l.66.071c.025-.235.592-5.784-2.373-9.089a6.767,6.767,0,0,0-2.464-1.742l.571-2.238-5.84-2.174-12.3-11.821.008-.033.048-.542,0,0,.382-4.5,1.663-6.591,8.862-2.717,8.784-11.424.021.1,2.232-.276v2.142H120.9v-3.529l1.312-.631v-8.354l-1.312.426v-4.966h-2V197.75h-3.245l-.135-.073h-3.751l-.189-8.642.644-.025c0,.058-.014.112-.014.17a3.177,3.177,0,0,0,3.218,3.137l16.788-.21a3.18,3.18,0,0,0-.081-6.359Zm-18.19,80.7c1.611,1.792,2.01,4.478,2.08,6.251a27.4,27.4,0,0,0-6.857-.644,27.412,27.412,0,0,0-6.859.644c.071-1.773.469-4.459,2.078-6.251a5.4,5.4,0,0,1,1.572-1.171l5.29,3.392.893-3.517A5.382,5.382,0,0,1,113.947,266.449Z" transform="translate(-56.349 -185.749)" fill="#fff"/>
</svg>
