<svg xmlns="http://www.w3.org/2000/svg" width="83.493" height="91.779" viewBox="0 0 83.493 91.779">
  <g id="Group_9" data-name="Group 9" style="isolation: isolate">
    <path id="Path_405" data-name="Path 405" d="M200.639,108.665l10.741,3.744,7.444,2.6-1.744-20.6h.046L216.937,94l4.716-14.33-1.5-13.01,3.5-4.105,2.914-3.414,2.67-3.119-.389-.32-1.426-1.168-.258-.212.007-.751.051-6.981c-1.435-.424-2.327-.776-2.184-.975.516-.719.41-1.4,1.394-1.389a8.441,8.441,0,0,1,.5-2.1c.016-.046.035-.094.055-.141a8.434,8.434,0,0,1,8.308-5.225c3.686.221,7.269,2.357,7.732,7.146.028.276.046.558.051.85a14.052,14.052,0,0,1-.2,2.361,3.9,3.9,0,0,1,1.875.774c.389.5,1.636,2.686.378,2.613-.341-.021-2.043-.332-4.3-.783l-.5,1.138-.03.065,1.472,3.836-2.285,1.4-1.548,4.495h-3.023l-.958-.786L232.676,61.9l-.007.014.007.014.993,2.133a25.216,25.216,0,0,1,3.087,6.269l-.458,1.832,1.474,1.046L253.8,71.131l3.967-1.514,4.9,1.855-.758,1.387,3.105,1.175L261.3,80.864l-4.628-1.751-2.221-1.68h0l-15.668,3.993-3.951-2.168-.2,2.338-.046.5-1.113,5.043-1.2,5.4,19.474,5.716-.965,15.579-.6,8.681,5.5,2.414,1.691,3.594L243.12,127.4s.014-5.767,0-11.754c0-.848,0-.749,0-1.585,0-.682-.007-1.334-.012-1.965-.014-1.822-.03-3.523-.053-4.933-.032-1.375-.083-1.795-.161-1.666-.055.092-7.391-1.071-13.636-2.08l-1.991,22.8s-9.989-4.016-16.548-6.921a33.036,33.036,0,0,1-5.531-2.769c-.18.984-1.79,7.163-1.79,7.163l-3.781,2.527Z" transform="translate(-199.614 -36.744)" fill="#fff"/>
    <path id="Path_406" data-name="Path 406" d="M201.814,68.215v.12h-.12q-2.405,0-4.808,0c-.092,0-.12-.023-.12-.117.007-.592-.014-1.184.012-1.774a4.9,4.9,0,0,1,4.082-4.631,6.822,6.822,0,0,1,1.186-.067h.143V60.721h1.078v-.24c0-.313,0-.627,0-.94a.119.119,0,0,0-.074-.129,1.575,1.575,0,0,1-.624-.567.163.163,0,0,0-.157-.083q-1.234,0-2.472,0a.837.837,0,0,1-.85-.806.828.828,0,0,1,.843-.859q1.206-.007,2.412,0a.26.26,0,0,0,.251-.127,1.657,1.657,0,0,1,2.755.035.18.18,0,0,0,.173.092q1.23,0,2.461,0a.834.834,0,1,1,0,1.668q-1.227,0-2.451,0a.19.19,0,0,0-.189.1,1.64,1.64,0,0,1-.617.56c-.03.016-.069.051-.069.076,0,.4,0,.8,0,1.216h1.081v.177c0,.249,0,.5,0,.746,0,.094.03.115.12.115q1.337,0,2.675,0h.131v5.045h-5.333a1.446,1.446,0,0,0-1.269.636A1.378,1.378,0,0,0,201.814,68.215Z" transform="translate(-136.864 -11.311)" fill="#fff"/>
    <path id="Path_407" data-name="Path 407" d="M191.887,82.778c.569,0,1.138,0,1.707,0,.094,0,.118.028.118.12V39.457h8.98v85.53h-8.98V89.446c0,.09-.025.115-.115.115-.574,0-1.15,0-1.726,0-.03,0-.062,0-.108-.007V82.9C191.763,82.778,191.763,82.778,191.887,82.778Z" transform="translate(-119.199 -33.208)" fill="#fff"/>
    <path id="Path_408" data-name="Path 408" d="M206.2,63.762h-6.764V61.829H206.2Z" transform="translate(-140.394 -4.038)" fill="#fff"/>
    <path id="Path_409" data-name="Path 409" d="M200.794,64.811c.274-.518.578-1.023.871-1.532.014-.025.032-.048.055-.083.018.023.03.032.039.046a15.541,15.541,0,0,1,1.161,2.136,3.033,3.033,0,0,1,.205.643,1.392,1.392,0,0,1-1.016,1.53,1.418,1.418,0,0,1-1.8-1.313,1.23,1.23,0,0,1,.081-.472A7.76,7.76,0,0,1,200.794,64.811Z" transform="translate(-139.33 -2.256)" fill="#fff"/>
  </g>
</svg>
