<svg xmlns="http://www.w3.org/2000/svg" width="246.017" height="78.245" viewBox="0 0 246.017 78.245">
  <g id="Group_40" data-name="Group 40" transform="translate(-184.761 -182.675)">
    <g id="Group_34" data-name="Group 34" transform="translate(268.61 202.382)">
      <path id="Path_2036" data-name="Path 2036" d="M333.38,220.679h7.784l8.627,13.879,8.628-13.879H366.2V253.5h-7.174V232.073l-9.237,14.02H349.6l-9.143-13.879V253.5h-7.08Z" transform="translate(-333.38 -218.944)" fill="#3b88e4"/>
      <path id="Path_2037" data-name="Path 2037" d="M399.359,246.653v-.094c0-7.221,5.815-13.082,13.645-13.082,7.784,0,13.551,5.768,13.551,12.988v.094c0,7.221-5.815,13.082-13.644,13.082C405.127,259.642,399.359,253.874,399.359,246.653Zm20.162,0v-.094a6.677,6.677,0,0,0-6.611-6.939c-4.08,0-6.517,3.141-6.517,6.846v.094A6.677,6.677,0,0,0,413,253.5C417.083,253.5,419.521,250.358,419.521,246.653Z" transform="translate(-362.134 -224.522)" fill="#3b88e4"/>
      <path id="Path_2038" data-name="Path 2038" d="M453.705,250.579v-16.27h7.127v14.019c0,3.376,1.594,5.111,4.313,5.111s4.455-1.735,4.455-5.111V234.309h7.127v25.132H469.6v-3.563c-1.641,2.11-3.751,4.032-7.362,4.032C456.846,259.91,453.705,256.346,453.705,250.579Z" transform="translate(-385.819 -224.884)" fill="#3b88e4"/>
      <path id="Path_2039" data-name="Path 2039" d="M503.148,218.186h7.126v18.24l8.346-9.143h8.534l-9.566,9.894,9.894,15.239h-8.158l-6.565-10.268-2.485,2.626v7.643h-7.126Z" transform="translate(-407.367 -217.858)" fill="#3b88e4"/>
      <path id="Path_2040" data-name="Path 2040" d="M545.444,246.653v-.094c0-7.174,5.111-13.082,12.425-13.082,8.393,0,12.238,6.518,12.238,13.645,0,.563-.047,1.219-.094,1.875H552.524a5.829,5.829,0,0,0,6.142,4.923,8.233,8.233,0,0,0,6.1-2.579l4.08,3.61a12.57,12.57,0,0,1-10.268,4.689C551.023,259.642,545.444,254.343,545.444,246.653Zm17.723-2.109c-.421-3.189-2.3-5.346-5.3-5.346-2.954,0-4.876,2.11-5.438,5.346Z" transform="translate(-425.8 -224.522)" fill="#3b88e4"/>
      <path id="Path_2041" data-name="Path 2041" d="M595.763,233.125h-2.954v-5.861h2.954v-1.594c0-2.766.7-4.783,2.016-6.1a7.818,7.818,0,0,1,5.768-1.97,15.769,15.769,0,0,1,5.064.7v5.908a9.027,9.027,0,0,0-3.236-.61c-1.641,0-2.578.844-2.578,2.72v.984h5.767v5.815h-5.674v19.036h-7.127Z" transform="translate(-446.443 -217.604)" fill="#3b88e4"/>
    </g>
    <g id="Group_35" data-name="Group 35" transform="translate(184.761 182.675)">
      <path id="Path_2042" data-name="Path 2042" d="M236.236,285.313a1.837,1.837,0,0,0-2.443,2.743,16.114,16.114,0,0,0,21.53-.077,1.836,1.836,0,1,0-2.459-2.728A12.445,12.445,0,0,1,236.236,285.313Z" transform="translate(-205.862 -227.173)" fill="#3b88e4"/>
      <path id="Path_2043" data-name="Path 2043" d="M267.828,285.567l-12.654-10.094a33.126,33.126,0,0,0,3.872-12.3,4.285,4.285,0,1,0-8.519-.938,24.658,24.658,0,0,1-49.012,0,4.285,4.285,0,1,0-8.519.938,33.243,33.243,0,0,0,56.55,19.817l12.428,9.914a4.693,4.693,0,1,0,5.853-7.337Z" transform="translate(-188.339 -215.685)" fill="#3b88e4"/>
      <path id="Path_2044" data-name="Path 2044" d="M234.715,186.913l-.868,8.654v.174l-2.129-11.564-2.678-.862a13.333,13.333,0,0,0-8.172,0l-2.678.862-2.129,11.564v-.174l-.868-8.654a34.467,34.467,0,0,0-23.735,25.114h66.993A34.468,34.468,0,0,0,234.715,186.913Z" transform="translate(-187.68 -182.675)" fill="#3b88e4"/>
      <path id="Path_2045" data-name="Path 2045" d="M222.036,250.037a212.609,212.609,0,0,0,34.094-2.742v-.015a3.809,3.809,0,0,0,3.18-3.752c0-1.358-2.038-3.674-2.191-4.991H186.953c-.153,1.317-2.192,3.633-2.192,4.991v.038a3.772,3.772,0,0,0,2.9,3.666l-.006.018A212.638,212.638,0,0,0,222.036,250.037Z" transform="translate(-184.761 -207.02)" fill="#3b88e4"/>
    </g>
  </g>
</svg>
